HIERARCHY
ROOT Pelvis
{
	OFFSET 0.000000 0.000000 0.000000
	CHANNELS 6 Xposition Yposition Zposition Zrotation Yrotation Xrotation 
	JOINT Left_hip
	{
		OFFSET 0.076090 -0.089427 -0.010735
		CHANNELS 3 Zrotation Yrotation Xrotation
		JOINT Left_knee
		{
			OFFSET 0.030200 -0.359518 -0.003501
			CHANNELS 3 Zrotation Yrotation Xrotation
			JOINT Left_ankle
			{
				OFFSET -0.011005 -0.371022 -0.045888
				CHANNELS 3 Zrotation Yrotation Xrotation
				JOINT Left_foot
				{
					OFFSET 0.023930 -0.052103 0.111084
					CHANNELS 3 Zrotation Yrotation Xrotation
					End Site
					{
						OFFSET 0.000000 0.000000 0.000000
					}
				}
			}
		}
	}
	JOINT Right_hip
	{
		OFFSET -0.073836 -0.088112 -0.007709
		CHANNELS 3 Zrotation Yrotation Xrotation
		JOINT Right_knee
		{
			OFFSET -0.035715 -0.367809 -0.006536
			CHANNELS 3 Zrotation Yrotation Xrotation
			JOINT Right_ankle
			{
				OFFSET 0.013718 -0.371958 -0.043815
				CHANNELS 3 Zrotation Yrotation Xrotation
				JOINT Right_foot
				{
					OFFSET -0.021936 -0.046387 0.114542
					CHANNELS 3 Zrotation Yrotation Xrotation
					End Site
					{
						OFFSET 0.000000 0.000000 0.000000
					}
				}
			}
		}
	}
	JOINT Spine1
	{
		OFFSET -0.001865 0.102064 -0.019455
		CHANNELS 3 Zrotation Yrotation Xrotation
		JOINT Spine2
		{
			OFFSET 0.003082 0.129260 -0.001938
			CHANNELS 3 Zrotation Yrotation Xrotation
			JOINT Spine3
			{
				OFFSET 0.001104 0.048093 0.026561
				CHANNELS 3 Zrotation Yrotation Xrotation
				JOINT Neck
				{
					OFFSET -0.002010 0.204222 -0.047183
					CHANNELS 3 Zrotation Yrotation Xrotation
					JOINT Head
					{
						OFFSET 0.005050 0.063649 0.048489
						CHANNELS 3 Zrotation Yrotation Xrotation
						End Site
						{
							OFFSET 0.000000 0.000000 0.000000
						}
					}
				}
				JOINT Left_collar
				{
					OFFSET 0.072979 0.114065 -0.031633
					CHANNELS 3 Zrotation Yrotation Xrotation
					JOINT Left_shoulder
					{
						OFFSET 0.083419 0.032092 -0.006530
						CHANNELS 3 Zrotation Yrotation Xrotation
						JOINT Left_elbow
						{
							OFFSET 0.239393 -0.012014 -0.025060
							CHANNELS 3 Zrotation Yrotation Xrotation
							JOINT Left_wrist
							{
								OFFSET 0.227297 0.008116 0.000384
								CHANNELS 3 Zrotation Yrotation Xrotation
								JOINT Left_palm
								{
									OFFSET 0.074607 -0.009248 -0.012277
									CHANNELS 3 Zrotation Yrotation Xrotation
									End Site
									{
										OFFSET 0.000000 0.000000 0.000000
									}
								}
							}
						}
					}
				}
				JOINT Right_collar
				{
					OFFSET -0.074980 0.111880 -0.037894
					CHANNELS 3 Zrotation Yrotation Xrotation
					JOINT Right_shoulder
					{
						OFFSET -0.087565 0.034353 -0.009323
						CHANNELS 3 Zrotation Yrotation Xrotation
						JOINT Right_elbow
						{
							OFFSET -0.236838 -0.013719 -0.019794
							CHANNELS 3 Zrotation Yrotation Xrotation
							JOINT Right_wrist
							{
								OFFSET -0.235053 0.006433 -0.003853
								CHANNELS 3 Zrotation Yrotation Xrotation
								JOINT Right_palm
								{
									OFFSET -0.075499 -0.006894 -0.009792
									CHANNELS 3 Zrotation Yrotation Xrotation
									End Site
									{
										OFFSET 0.000000 0.000000 0.000000
									}
								}
							}
						}
					}
				}
			}
		}
	}
}
MOTION
Frames: 15
Frame Time: 0.100000
0.000000 0.000000 0.000000 173.320169 29.271738 -15.078103 0.790919 1.802485 8.219241 -2.555796 -6.972851 -8.341976 1.026281 8.402327 -4.253602 0.964694 7.595376 -3.827003 2.541256 -0.521749 6.558995 2.568863 5.853513 -6.398039 3.995963 -11.937339 -8.286814 -6.512633 8.260411 6.174732 1.603717 0.653537 0.995736 2.011888 -2.783361 1.368538 1.040269 -2.279578 0.526760 1.681964 3.037185 -7.394971 -2.488995 -3.817646 5.313649 -29.746619 -3.310072 3.875374 -49.901283 -8.731650 11.086856 -0.283276 -13.398853 16.372318 -8.965306 -0.354908 5.874867 -11.260134 -5.739882 -13.326326 30.068112 3.733929 4.212807 48.011748 1.719962 15.397057 -5.843928 15.812476 1.688700 6.378148 -0.663413 1.155226 13.695611 8.174332 -7.689346 
-0.000632 -0.000174 0.001098 173.358344 28.832175 -14.927893 0.896613 1.989436 8.316491 -2.611655 -6.792807 -8.546014 0.661170 8.454427 -4.360099 1.489468 7.551359 -3.900065 2.554795 -0.435695 6.549272 2.546739 5.957096 -6.546602 4.498738 -11.649701 -8.277873 -7.081002 8.229486 5.852137 1.555162 0.603946 0.815439 2.110964 -2.709809 1.091498 1.074694 -2.306171 0.510435 1.895280 2.995837 -7.503913 -2.636185 -4.155697 5.919201 -30.057437 -2.640830 3.777672 -50.642342 -8.535885 11.243921 0.543256 -13.689731 15.662416 -7.895233 -0.508075 5.862650 -11.343829 -5.746477 -13.357192 30.477310 3.322869 3.780761 48.586821 2.011241 15.377205 -6.436845 16.041715 0.488361 5.794270 -0.562050 0.576838 13.731033 8.115816 -7.660119 
-0.001177 -0.000308 0.001856 173.412658 28.294293 -14.912579 0.875879 1.910674 8.399805 -2.562898 -6.399687 -8.443035 0.341471 8.688350 -4.562501 2.273539 7.476355 -4.253035 2.597556 -0.318961 6.609045 2.537561 6.086461 -6.564750 4.922246 -11.476599 -8.300393 -7.765664 8.341078 5.587984 1.551501 0.561102 0.598858 2.220461 -2.575555 1.019955 1.151849 -2.311958 0.561000 2.181849 2.835019 -7.761938 -2.656542 -4.311456 6.549588 -30.634520 -1.860754 4.038084 -52.348113 -8.007584 12.043679 -0.032875 -16.803311 16.067601 -7.485635 -1.524898 4.362162 -11.348647 -5.688861 -12.980217 30.898344 3.021642 3.762682 49.412554 2.006138 15.979901 -6.320259 18.231583 0.611462 5.497597 -0.116130 -0.142218 13.626353 8.037467 -7.607872 
-0.001311 -0.000224 0.001601 173.288815 28.649713 -15.114939 0.854009 1.607291 8.352929 -2.560919 -6.277694 -8.132226 0.670528 8.623200 -4.634403 1.989601 7.383576 -4.342270 2.689798 -0.184887 6.733224 2.522092 5.884346 -6.476804 4.153816 -11.521752 -8.384025 -6.829611 7.919244 6.321709 1.381418 0.383236 0.529095 2.318801 -2.797037 1.184904 1.098997 -2.468687 0.475548 2.685512 2.393437 -7.661019 -2.399564 -4.662249 6.668170 -31.099653 -2.175720 4.850402 -53.338219 -7.746469 13.584206 -2.269082 -20.335196 19.478017 -8.516009 -2.432127 3.812643 -11.486097 -5.624653 -13.005483 31.251945 3.266846 4.102012 49.873821 2.002317 16.138296 -6.376937 18.996964 1.227173 5.775564 0.000455 -0.490872 13.559536 8.052794 -7.742613 
-0.000399 -0.000201 0.001453 173.222717 28.688276 -15.236954 0.933346 1.671370 8.405986 -2.558139 -6.232156 -8.149266 0.911226 8.614190 -4.580072 1.544681 7.191062 -4.263997 2.752370 -0.215213 6.760253 2.564463 5.879870 -6.437043 3.718935 -11.349292 -8.339874 -6.067785 7.577360 6.820456 1.237151 0.428354 0.462857 2.422178 -2.855485 1.235916 1.078686 -2.473969 0.448112 2.870318 1.751207 -7.127566 -2.224799 -5.257790 6.936641 -30.677584 -2.558982 5.084441 -53.150660 -7.940243 14.397900 -3.270900 -22.265520 21.909092 -8.901769 -2.653792 4.343364 -11.554460 -5.537597 -13.063204 30.968181 3.456528 4.199820 49.280737 1.973566 15.775995 -6.113522 18.292368 1.630906 6.086695 -0.082068 -0.193481 13.500325 8.034804 -7.851053 
0.001007 -0.000016 0.000990 173.260305 28.555841 -15.416573 1.013701 1.700877 8.556428 -2.630705 -6.385970 -8.149107 1.151340 8.747389 -4.558791 1.193308 7.352216 -4.037210 2.761826 -0.210532 6.957999 2.632991 6.088633 -6.574850 3.549681 -11.648307 -8.256891 -5.892332 8.037502 7.061961 1.048243 0.567550 0.432556 2.420248 -2.871204 1.398479 0.906481 -2.444493 0.457006 3.268980 -0.078302 -5.867586 -1.840957 -7.133560 7.891924 -30.371006 -2.791368 5.138908 -51.662608 -8.575921 13.516006 -2.754786 -21.019839 19.948408 -9.021877 -2.034464 3.939606 -11.411285 -5.508634 -12.816656 30.821723 3.789096 4.284946 48.719104 1.711227 15.763281 -5.804222 18.027791 1.931846 6.262330 -0.393598 0.222621 13.387929 8.110771 -7.610980 
0.002624 -0.000435 0.000505 173.144425 28.696631 -15.917395 1.222966 1.870267 8.970750 -2.688450 -6.791086 -8.143409 1.092804 8.741056 -4.385266 1.118640 7.723012 -4.058208 2.945423 -0.082662 7.434487 2.579241 6.103036 -6.651744 3.251050 -12.066882 -8.113900 -5.783017 8.391006 7.472954 0.703155 0.419665 0.310277 2.474183 -3.305022 1.549367 0.419035 -2.768380 0.732487 4.697714 -5.354528 -2.848405 -1.054404 -12.521676 10.695463 -29.999021 -2.454699 5.426555 -50.743613 -9.395636 12.401906 -1.094056 -18.142689 17.074440 -9.322482 -0.944187 4.090462 -10.812577 -5.191961 -12.691099 30.282923 4.012782 3.700070 49.328542 1.421149 15.823805 -5.682013 17.918994 2.437721 6.595515 -0.860188 0.625304 12.687445 8.014230 -6.840304 
0.004290 -0.001200 -0.000945 173.190300 27.596097 -16.252061 1.546159 2.317798 9.255625 -2.955299 -6.647814 -7.782669 0.551668 9.053718 -4.603973 1.844712 8.281956 -4.351184 3.027519 0.252551 7.759586 2.679381 6.317462 -6.689192 3.890626 -11.670647 -7.754462 -6.861163 8.443256 7.120021 0.593748 0.264361 0.670708 2.610689 -3.527838 1.956466 0.087130 -3.030428 1.223414 6.165434 -13.696897 -0.014044 0.410106 -20.316051 12.204061 -29.604066 -0.550353 5.245675 -51.640096 -9.955797 10.057778 2.387666 -16.370708 9.967933 -8.717668 -0.127896 1.129841 -9.677104 -4.584152 -11.586928 28.569397 3.446645 2.516903 50.530675 0.594066 15.530255 -6.468958 21.289172 1.359030 6.420273 -1.008808 -0.768663 11.522716 7.799103 -5.515898 
0.005787 -0.001695 -0.003162 174.003753 23.505540 -15.631334 1.531300 3.158204 9.637693 -3.081407 -4.859789 -8.256464 -0.939305 10.586692 -4.887677 4.265413 7.995109 -4.718944 2.901710 1.161180 7.052727 2.910633 7.092476 -6.348938 5.984367 -10.157969 -7.160274 -9.546177 8.548827 5.930672 1.264673 -0.407585 1.471013 2.963655 -3.331045 1.632752 0.108415 -3.206635 1.709995 6.465569 -19.546303 1.466393 0.048565 -25.460766 14.421668 -29.171307 3.349675 5.146388 -55.215621 -9.214207 7.440555 7.186809 -14.417266 -1.257687 -6.729511 -0.635684 -6.772963 -7.964145 -3.784768 -9.246014 27.058929 2.391730 1.124259 50.768841 1.888122 14.317566 -8.406886 21.083541 -4.741344 5.115238 -1.369055 -4.543418 10.072875 7.010015 -4.032272 
0.007639 -0.001838 -0.006292 175.050942 17.944887 -15.345338 1.487634 4.527099 9.951638 -3.197498 -2.897538 -7.691688 -0.651681 12.025686 -5.458912 4.298527 8.183122 -4.692391 2.855143 2.347282 6.443550 3.033451 8.710835 -5.629303 6.113085 -7.565809 -6.571523 -8.573782 7.179339 6.530397 1.995043 -1.585304 2.322677 3.715812 -4.175932 1.906941 0.092730 -3.975327 2.329686 6.078384 -21.980048 6.027972 -1.800440 -26.793538 17.360539 -29.061513 5.175690 5.322253 -56.983422 -8.310683 7.216399 8.347733 -13.001193 -2.414253 -6.835747 -0.110558 -6.990425 -8.027662 -3.436077 -9.959324 26.008009 1.278635 -0.620330 48.889134 4.749321 12.619493 -10.075346 21.422425 -9.217985 4.645718 -1.614838 -6.441281 10.371466 6.800985 -3.979387 
0.008036 -0.001489 -0.012406 175.856862 14.429832 -15.136631 0.986425 5.164422 9.082736 -2.996979 -1.460174 -5.958177 0.614192 12.752471 -5.597582 2.807711 8.660331 -4.935227 2.547046 3.227521 5.678595 3.213767 10.040916 -5.074643 5.129041 -5.943945 -6.088716 -6.158306 6.036420 8.195666 2.837643 -2.503115 3.392007 4.526263 -5.397676 2.858846 -0.001623 -4.822464 2.999303 4.786178 -22.323038 9.435965 -4.043752 -26.620960 18.912970 -28.863847 4.000185 5.693146 -55.979276 -8.200130 9.188679 5.697396 -15.404198 4.900433 -9.539707 -0.047010 -2.256621 -9.497548 -3.649548 -12.182878 25.438617 0.613698 -1.499642 44.857769 6.107450 10.745022 -12.211825 23.094061 -11.271075 3.952549 -1.326922 -5.775041 11.926881 7.299119 -5.226155 
0.008520 -0.000410 -0.021030 176.189784 14.261880 -14.595162 0.463687 5.307869 7.540301 -2.981249 -0.913338 -4.939126 0.796774 12.670375 -5.354846 2.192369 8.743487 -5.455691 2.284873 3.427797 4.233236 3.063990 9.967383 -4.287934 5.284881 -5.844972 -5.994930 -5.855531 6.234395 8.407286 3.342881 -3.096432 5.073859 4.953751 -5.807499 2.997094 0.026521 -5.308735 3.679608 4.185181 -22.082535 10.250766 -4.899556 -26.179684 19.928189 -28.800461 3.797356 5.512599 -55.547143 -9.768037 9.711384 6.715008 -19.074157 5.298704 -8.664066 -0.098928 -1.976265 -9.515557 -3.691487 -11.490010 25.424503 -0.461449 -1.792133 42.150864 5.416730 9.145630 -13.998987 20.274248 -14.203123 2.567847 -1.725445 -4.796465 12.060563 7.379052 -5.336262 
0.010946 0.001291 -0.031760 176.153489 15.941817 -14.097893 0.159946 4.490026 5.785248 -3.227523 -0.816105 -4.275263 0.910223 12.506493 -4.775163 1.707491 8.612302 -5.828590 2.121738 3.227798 2.642731 2.956026 9.103773 -3.561735 5.499353 -6.479813 -5.684646 -6.209518 7.042616 8.171907 3.493124 -3.091410 7.211512 4.969172 -5.413033 3.309190 0.130770 -5.102297 4.357854 3.618099 -21.847629 10.395514 -4.483230 -25.898929 20.749925 -28.594484 3.394216 5.566500 -56.029918 -12.636346 9.341727 9.297822 -21.499616 0.675212 -7.389999 -0.506612 -5.923970 -8.002634 -3.390931 -8.555492 25.819650 -0.297432 -0.607207 42.212349 4.047311 8.709312 -12.437904 12.970099 -15.004722 3.005121 -3.063686 -4.204302 10.799191 7.008818 -4.596508 
0.016414 0.003331 -0.044511 176.045056 18.172521 -12.927466 -0.252600 3.247684 3.038594 -3.220241 -0.818145 -3.725155 1.003670 12.148658 -3.641569 1.818916 8.748226 -6.416977 2.041496 3.107542 0.131664 2.725678 7.954230 -2.836665 5.795602 -7.681756 -5.141349 -7.219897 8.119950 7.680981 3.402008 -2.738770 9.502930 4.912403 -4.870734 3.730013 0.385382 -4.732345 5.147985 3.024381 -20.249155 9.263163 -4.012112 -25.002461 21.113609 -28.206023 2.309536 5.823756 -56.444288 -14.444626 10.387876 9.506011 -25.487169 1.284562 -7.334061 -1.096819 -6.402627 -7.180471 -3.338542 -7.163010 26.786994 0.473905 0.930407 44.506876 2.381724 10.504556 -10.001394 10.925302 -11.328464 4.632626 -3.263529 -2.035424 10.031190 6.863536 -4.459750 
0.025385 0.006911 -0.065070 176.104450 20.133950 -10.870615 -0.989627 2.070207 -1.642203 -2.897319 -0.527665 -2.273882 0.482331 11.590752 -2.159539 3.303386 9.509673 -7.575089 1.976091 3.470561 -5.282077 2.231823 6.245180 0.788298 6.696889 -8.915119 -5.068201 -9.502938 9.160570 6.128499 3.380057 -2.824042 13.376924 4.663240 -4.458446 3.932221 0.672684 -4.582681 6.064560 2.391195 -16.700743 6.719696 -3.876028 -22.637839 20.813055 -27.252634 0.612203 5.959479 -57.155873 -14.917920 12.149841 8.486961 -31.586975 4.314873 -6.404597 -1.807581 -4.737499 -7.073025 -3.386484 -7.427106 26.782782 1.837684 1.715685 47.629013 2.219078 13.354252 -9.203211 18.434382 -6.861637 4.732749 -1.589428 -0.376672 9.754690 6.832210 -4.792776 
